<svg width="57" height="46" viewBox="0 0 57 46" fill="none" xmlns="http://www.w3.org/2000/svg">
<path d="M49.6456 0.890304C48.1451 0.868631 44.6593 1.366 38.8395 5.16902C35.6676 4.39503 32.2927 4.01309 28.9121 4.01309C25.1924 4.01309 21.4334 4.47426 17.9279 5.41316C9.57229 -0.152274 5.8842 0.98825 5.8842 0.98825C3.47646 6.8669 4.96433 11.2193 5.41655 12.3002C2.58662 15.2822 0.859009 19.0901 0.859009 23.7571C0.859009 27.2804 1.26973 30.4405 2.27319 33.1876C2.32884 33.3996 2.3108 33.3523 2.40456 33.5339C2.62563 34.1025 2.87143 34.6546 3.14771 35.1877C3.24237 35.3795 3.32854 35.5215 3.32854 35.5215C6.14934 40.6553 11.7101 43.9715 21.6039 45.0128L36.5678 45.0293C47.1192 44.0077 52.1823 40.6816 54.5155 35.5132L54.6638 35.1766C54.8849 34.6546 55.0776 34.1113 55.6047 32.2828C56.1318 30.4542 56.3676 27.2874 56.3676 23.7556C56.3676 18.6904 54.4191 14.6374 51.2549 11.554C51.8078 9.81132 52.5465 5.94125 50.5174 0.986837C50.5174 0.986837 50.2328 0.898823 49.6456 0.890304ZM37.8534 19.4783C40.2898 19.4731 42.3768 19.8816 43.9438 21.4866V21.488C45.9044 23.4981 47.0518 25.9251 47.0518 28.5405C47.0518 40.7521 39.0078 41.0842 29.0859 41.0842C19.1623 41.0842 11.1199 39.3921 11.1199 28.5405C11.1199 25.9424 12.2505 23.53 14.187 21.528C17.4172 18.1914 22.8836 19.9583 29.0859 19.9583C32.2696 19.9578 35.2597 19.4838 37.8534 19.4783ZM19.3717 23.0743C17.3072 23.0743 15.6335 25.7995 15.6335 29.1627C15.6335 32.5264 17.3071 35.2525 19.3717 35.2525C21.4362 35.2525 23.1099 32.5264 23.1099 29.1627C23.1099 25.8 21.4363 23.0767 19.3717 23.0743ZM39.4286 23.0743C37.364 23.0743 35.6904 25.7995 35.6904 29.1627C35.6904 32.5264 37.364 35.2525 39.4286 35.2525C41.4931 35.2525 43.1667 32.5264 43.1667 29.1627C43.1667 25.8 41.4931 23.0767 39.4286 23.0743Z" fill="white"/>
</svg>
