<svg width="68" height="79" viewBox="0 0 68 79" fill="none" xmlns="http://www.w3.org/2000/svg">
<path d="M50.9504 16.7129L51.1834 16.827C48.0292 18.253 39.0161 22.8519 39.0161 28.7058C39.0161 30.6808 40.3352 32.5845 41.5711 34.3742C42.6613 35.95 43.6891 37.433 43.6891 38.7878C43.6891 42.1995 39.8067 44.8484 37.6138 46.0676L37.1977 45.8608C38.0257 44.9945 39.0452 43.5435 39.0452 41.9963C39.0452 39.8644 37.7678 38.1603 36.4736 36.4312C35.1337 34.6451 33.7772 32.8305 33.7772 30.4776C33.7772 22.3065 46.7393 17.9214 50.9504 16.7129ZM33.9103 21.0337C39.1243 17.0409 44.821 12.6772 44.821 6.11395C44.821 3.14425 43.402 1.24764 42.6988 0.488281L42.4699 0.598798C42.6363 1.1906 42.886 2.28151 42.886 3.70753C42.886 9.68258 36.9688 13.868 31.243 17.925C25.8709 21.7325 20.6653 25.4188 20.6653 30.3528C20.6653 37.4295 28.8129 41.7824 32.2542 43.622L32.5163 43.7646L32.7244 43.6576C32.531 43.4742 32.334 43.2935 32.1335 43.1157C29.487 40.7022 25.4673 37.0409 25.4673 31.4402C25.4673 27.5079 29.5161 24.4027 33.9103 21.0337ZM32.0336 56.3564C39.374 56.3564 44.5089 55.4544 46.7892 54.9018L50.2513 56.6131C46.9515 58.0498 39.6361 59.1443 32.017 59.1443C23.058 59.1443 13.2625 57.4972 13.2334 55.3011C13.2126 54.089 16.4167 53.2833 19.8705 52.7628L20.0786 52.8662C20.0786 52.8662 18.9093 53.2263 18.9217 54.0534C18.9384 55.3011 24.8306 56.3564 32.0295 56.3564M17.3447 64.0961C17.3447 62.6452 20.8359 61.9571 22.4338 61.6826L22.6418 61.7895C22.3672 61.9642 22.2174 62.2031 22.2174 62.4063C22.2174 63.3582 26.0873 64.228 32.0212 64.228C37.3392 64.228 40.2936 63.6683 42.0496 63.3083L46.1692 65.351C45.9819 65.4651 41.9248 67.6505 32.0128 67.6505C24.8098 67.6505 17.3447 66.1104 17.3447 64.0961ZM52.8354 57.9357C57.7456 55.5364 62.66 52.6986 62.9388 48.1425C63.1218 45.1514 59.9136 42.9589 56.4057 43.5435L56.593 43.1443V43.1371C57.4751 42.909 58.5654 42.7236 59.7846 42.7236C63.7086 42.7236 66.7171 44.7378 67.0999 47.5578C67.8739 53.212 58.5196 56.8911 53.2807 58.1567L52.8354 57.9357ZM61.0537 68.5881C61.0954 72.474 45.6657 74.7842 31.8755 74.8876C19.9704 74.9767 0.774822 73.0516 0.73321 69.1657C0.708243 66.4812 9.05558 64.6238 13.5913 64.089L14.0698 64.3207C14.0698 64.3207 7.30788 65.6648 7.32869 68.1068C7.35366 70.5418 21.5807 72.6487 31.8547 72.5739C47.7712 72.4526 58.5445 70.2316 59.8179 67.2191L60.0426 67.1086C60.5086 67.4009 61.0413 67.8822 61.0537 68.5881ZM12.6342 76.5026C18.522 77.3088 24.4775 77.6963 30.4399 77.6612C56.2725 77.4687 63.5629 72.0284 64.6865 70.8448L64.882 70.9446C64.6157 75.2512 50.9546 78.8305 34.1059 78.9553C25.5297 79.0195 17.7233 78.171 12.114 76.7628L12.6342 76.5026ZM23.4616 43.4081C18.9717 43.704 9.33022 44.9268 9.33022 47.1015C9.33022 48.7485 18.1686 51.0694 32.017 51.0694C44.4756 51.0694 52.3402 49.0551 54.1753 48.2886L51.4997 46.9517C49.5855 47.3974 42.4741 48.7557 32.017 48.7557C25.8584 48.7557 15.2474 47.7824 15.2474 46.2958C15.2474 44.9624 21.8679 43.9357 23.7695 43.6398L23.8902 43.622L23.4616 43.4081Z" fill="white"/>
</svg>
