<svg width="39" height="37" viewBox="0 0 39 37" fill="none" xmlns="http://www.w3.org/2000/svg">
<path d="M26.3876 11.3087C24.7415 11.3034 23.1105 11.6008 21.5879 12.184C20.0652 12.7671 18.6808 13.6245 17.5139 14.707C16.3469 15.7896 15.4204 17.0761 14.7872 18.4929C14.154 19.9097 13.8267 21.4291 13.8239 22.964V34.7395C13.8239 35.2175 14.0275 35.6759 14.39 36.0139C14.7525 36.3519 15.2441 36.5418 15.7567 36.5418H20.2668C20.7794 36.5418 21.2711 36.3519 21.6336 36.0139C21.996 35.6759 22.1997 35.2175 22.1997 34.7395V22.964C22.1993 22.4181 22.3222 21.8782 22.5606 21.3796C22.7989 20.8809 23.1473 20.4347 23.5829 20.0701C24.0186 19.7054 24.5318 19.4304 25.089 19.2631C25.6463 19.0957 26.2351 19.0398 26.8171 19.0989C27.8609 19.2215 28.8201 19.697 29.5129 20.4353C30.2057 21.1735 30.5838 22.1232 30.5755 23.1042V34.7395C30.5755 35.2175 30.7792 35.6759 31.1417 36.0139C31.5041 36.3519 31.9958 36.5418 32.5084 36.5418H37.0185C37.5311 36.5418 38.0228 36.3519 38.3852 36.0139C38.7477 35.6759 38.9514 35.2175 38.9514 34.7395V22.964C38.9486 21.4291 38.6212 19.9097 37.988 18.4929C37.3548 17.0761 36.4283 15.7896 35.2613 14.707C34.0944 13.6245 32.71 12.7671 31.1873 12.184C29.6647 11.6008 28.0337 11.3034 26.3876 11.3087Z" fill="white"/>
<path d="M8.02512 13.1108H2.22647C1.15896 13.1108 0.293579 13.9178 0.293579 14.9132V34.7393C0.293579 35.7347 1.15896 36.5416 2.22647 36.5416H8.02512C9.09263 36.5416 9.95801 35.7347 9.95801 34.7393V14.9132C9.95801 13.9178 9.09263 13.1108 8.02512 13.1108Z" fill="white"/>
<path d="M5.12579 9.50647C7.79455 9.50647 9.95801 7.4891 9.95801 5.00055C9.95801 2.512 7.79455 0.494629 5.12579 0.494629C2.45704 0.494629 0.293579 2.512 0.293579 5.00055C0.293579 7.4891 2.45704 9.50647 5.12579 9.50647Z" fill="white"/>
</svg>
