<svg width="85" height="73" viewBox="0 0 85 73" fill="none" xmlns="http://www.w3.org/2000/svg">
<path d="M68.812 23.6544C67.9338 23.3628 67.0557 23.0874 66.1775 22.8281C66.3239 22.2287 66.454 21.6293 66.5841 21.0298C68.5843 11.3739 67.2671 3.61355 62.8275 1.05377C58.5505 -1.39261 51.574 1.15097 44.5162 7.27502C43.8169 7.87446 43.1339 8.50631 42.4834 9.13815C42.0443 8.71692 41.589 8.29569 41.1336 7.89066C33.7343 1.34539 26.3187 -1.40881 21.8791 1.16717C17.6184 3.62975 16.3499 10.9365 18.1388 20.0739C18.3177 20.9812 18.5128 21.8723 18.7405 22.7795C17.6997 23.0712 16.6752 23.3952 15.7157 23.7354C7.03167 26.7326 0.803223 31.4634 0.803223 36.3561C0.803223 41.4109 7.43823 46.4819 16.4638 49.5601C17.1956 49.8031 17.9274 50.0461 18.6754 50.2567C18.4315 51.2288 18.2201 52.1847 18.025 53.173C16.3174 62.1646 17.6509 69.2931 21.9116 71.7395C26.3025 74.2669 33.6855 71.6747 40.8734 65.4048C41.4426 64.9026 42.0118 64.3842 42.581 63.8333C43.2965 64.53 44.0446 65.1942 44.7926 65.8423C51.7529 71.8043 58.6318 74.2183 62.8763 71.7719C67.2671 69.2445 68.6982 61.5814 66.8443 52.2495C66.6979 51.5366 66.5353 50.8076 66.3564 50.0623C66.8768 49.9165 67.3809 49.7545 67.885 49.5925C77.2684 46.4981 84.066 41.4919 84.066 36.3561C84.066 31.4472 77.6587 26.684 68.812 23.6544ZM46.8092 9.89961C52.8587 4.65043 58.5017 2.59288 61.0712 4.06718C63.8195 5.6387 64.8765 11.9896 63.1527 20.3332C63.0389 20.884 62.9251 21.4186 62.7787 21.9533C59.1685 21.1432 55.5095 20.56 51.8342 20.236C49.7201 17.2225 47.4109 14.3387 44.9065 11.6331C45.5407 11.0337 46.1587 10.4667 46.8092 9.89961ZM27.9937 44.7645C28.8231 46.174 29.6687 47.5835 30.5632 48.9606C28.0262 48.6852 25.5056 48.2802 23.0175 47.7456C23.733 45.4126 24.6274 42.9986 25.6682 40.536C26.4163 41.9617 27.1806 43.3712 27.9937 44.7645ZM23.0663 25.2745C25.408 24.7561 27.8962 24.3349 30.4818 24.0108C29.6199 25.3555 28.7743 26.7326 27.9775 28.1259C27.1806 29.503 26.4 30.9125 25.6682 32.3382C24.6437 29.9243 23.7818 27.5589 23.0663 25.2745ZM27.5221 36.4371C28.5954 34.2014 29.7663 32.0142 31.0022 29.8595C32.2382 27.7047 33.5717 25.6148 34.9702 23.5572C37.4096 23.379 39.8977 23.2818 42.4346 23.2818C44.9715 23.2818 47.4759 23.379 49.899 23.5572C51.2813 25.5986 52.5985 27.6885 53.8507 29.8271C55.1029 31.9656 56.2738 34.1528 57.3796 36.3723C56.2901 38.6081 55.1192 40.8115 53.867 42.9824C52.6311 45.1372 51.3138 47.2271 49.9315 49.3009C47.5084 49.4791 44.9878 49.5601 42.4346 49.5601C39.8814 49.5601 37.4096 49.4791 35.019 49.3333C33.6042 47.2757 32.2707 45.1696 31.0185 43.0148C29.7663 40.8601 28.6117 38.6729 27.5221 36.4371ZM56.8918 44.7321C57.7211 43.3064 58.5017 41.8645 59.2661 40.4064C60.3068 42.7556 61.2175 45.1372 62.0144 47.5835C59.4937 48.1506 56.9405 48.588 54.3711 48.8796C55.2493 47.5187 56.0786 46.1254 56.8918 44.7321ZM59.2335 32.3382C58.4692 30.9125 57.6886 29.4868 56.8755 28.0935C56.0786 26.7164 55.2493 25.3555 54.3874 24.0108C57.0056 24.3349 59.51 24.7723 61.8518 25.3069C61.1037 27.7047 60.2255 30.0377 59.2335 32.3382ZM42.4671 14.1119C44.1747 15.9588 45.7846 17.903 47.2808 19.9119C44.0608 19.7661 40.8246 19.7661 37.6047 19.9119C39.1984 17.822 40.8409 15.8778 42.4671 14.1119ZM23.6029 4.18059C26.335 2.59288 32.4008 4.86104 38.7919 10.4991C39.1984 10.8555 39.605 11.2443 40.0278 11.6331C37.5071 14.3387 35.1816 17.2225 33.0513 20.236C29.376 20.56 25.7333 21.127 22.123 21.9209C21.9116 21.0946 21.7328 20.2522 21.5539 19.4097C20.0252 11.5683 21.0335 5.6549 23.6029 4.18059ZM19.6187 46.8869C18.9356 46.6925 18.2689 46.4819 17.6021 46.2551C14.1383 45.1696 10.2028 43.4522 7.35691 41.2003C5.71443 40.0662 4.60859 38.3165 4.29961 36.3561C4.29961 33.3913 9.43848 29.6002 16.8541 27.0243C17.781 26.7002 18.7242 26.4086 19.6674 26.1332C20.7733 29.6488 22.1068 33.0997 23.6517 36.4371C22.0905 39.8232 20.7408 43.3226 19.6187 46.8869ZM38.5805 62.7641C35.8972 65.2104 32.7911 67.1546 29.4085 68.4831C27.6034 69.3417 25.5219 69.4227 23.668 68.6937C21.0823 67.2032 20.009 61.4842 21.4726 53.7886C21.6514 52.8813 21.8466 51.9741 22.0743 51.083C25.717 51.8607 29.3923 52.3953 33.1163 52.6707C35.263 55.7003 37.621 58.6004 40.1416 61.3222C39.6212 61.8244 39.1008 62.3104 38.5805 62.7641ZM42.5647 58.8272C40.906 57.045 39.2472 55.0685 37.6372 52.9461C39.1984 53.0109 40.8084 53.0433 42.4346 53.0433C44.1096 53.0433 45.7521 53.0109 47.3783 52.9299C45.8822 54.9875 44.2722 56.9478 42.5647 58.8272ZM63.8195 63.6875C63.6731 65.6641 62.6974 67.511 61.1362 68.7585C58.5505 70.249 53.0376 68.3049 47.0856 63.2177C46.4026 62.6344 45.7196 62.0026 45.0203 61.3545C47.5084 58.6166 49.8014 55.7165 51.883 52.6707C55.607 52.3629 59.3148 51.7959 62.9738 50.9696C63.1365 51.6338 63.2828 52.2981 63.4129 52.9461C64.2098 56.4456 64.3399 60.0909 63.8195 63.6875ZM66.7792 46.2713C66.3239 46.4171 65.8685 46.5629 65.3969 46.6925C64.2586 43.1606 62.86 39.7098 61.25 36.3561C62.8112 33.0511 64.1285 29.6488 65.2343 26.1656C66.0799 26.4086 66.8931 26.6678 67.6736 26.927C75.2519 29.5192 80.5696 33.3751 80.5696 36.3237C80.5696 39.4992 74.8941 43.5981 66.7792 46.2713ZM42.4346 43.8411C46.549 43.8411 49.8827 40.5198 49.8827 36.4209C49.8827 32.322 46.549 29.0008 42.4346 29.0008C38.3203 29.0008 34.9865 32.322 34.9865 36.4209C34.9865 40.5198 38.3203 43.8411 42.4346 43.8411Z" fill="white"/>
</svg>
