<svg width="58" height="58" viewBox="0 0 58 58" fill="none" xmlns="http://www.w3.org/2000/svg">
<path d="M25.9792 31.5133C25.9792 30.1358 24.8433 29 23.4658 29C22.0883 29 20.9525 30.1358 20.9525 31.5133C20.9525 32.1799 21.2173 32.8192 21.6887 33.2905C22.16 33.7619 22.7993 34.0267 23.4658 34.0267C24.1324 34.0267 24.7717 33.7619 25.243 33.2905C25.7144 32.8192 25.9792 32.1799 25.9792 31.5133ZM34.0508 37.2408C32.9633 38.3283 30.6433 38.715 29 38.715C27.3567 38.715 25.0367 38.3283 23.9492 37.2408C23.8904 37.1779 23.8193 37.1277 23.7403 37.0934C23.6613 37.0591 23.5761 37.0414 23.49 37.0414C23.4039 37.0414 23.3187 37.0591 23.2397 37.0934C23.1607 37.1277 23.0896 37.1779 23.0308 37.2408C22.9679 37.2996 22.9177 37.3707 22.8834 37.4497C22.8491 37.5287 22.8314 37.6139 22.8314 37.7C22.8314 37.7861 22.8491 37.8713 22.8834 37.9503C22.9177 38.0293 22.9679 38.1004 23.0308 38.1592C24.7467 39.875 28.0333 40.02 29 40.02C29.9667 40.02 33.2534 39.875 34.9692 38.1592C35.0321 38.1004 35.0823 38.0293 35.1166 37.9503C35.1509 37.8713 35.1686 37.7861 35.1686 37.7C35.1686 37.6139 35.1509 37.5287 35.1166 37.4497C35.0823 37.3707 35.0321 37.2996 34.9692 37.2408C34.7275 36.9992 34.3167 36.9992 34.0508 37.2408ZM34.5342 29C33.1567 29 32.0208 30.1358 32.0208 31.5133C32.0208 32.8908 33.1567 34.0267 34.5342 34.0267C35.9117 34.0267 37.0475 32.8908 37.0475 31.5133C37.0475 30.1358 35.9358 29 34.5342 29Z" fill="white"/>
<path d="M29 4.8335C15.66 4.8335 4.83337 15.6602 4.83337 29.0002C4.83337 42.3402 15.66 53.1668 29 53.1668C42.34 53.1668 53.1667 42.3402 53.1667 29.0002C53.1667 15.6602 42.34 4.8335 29 4.8335ZM43.0167 32.2143C43.065 32.5527 43.0892 32.9152 43.0892 33.2777C43.0892 38.691 36.7817 43.0893 29 43.0893C21.2184 43.0893 14.9109 38.691 14.9109 33.2777C14.9109 32.9152 14.935 32.5527 14.9834 32.2143C13.7509 31.6585 12.905 30.426 12.905 29.0002C12.9015 28.3072 13.1027 27.6286 13.4836 27.0496C13.8644 26.4706 14.4079 26.0171 15.0456 25.746C15.6834 25.4749 16.387 25.3983 17.0682 25.5258C17.7494 25.6533 18.3777 25.9792 18.8742 26.4627C21.315 24.6985 24.6984 23.5868 28.4442 23.466L30.2325 15.0318C30.2567 14.8627 30.3534 14.7177 30.4984 14.6452C30.6434 14.5485 30.8125 14.5243 30.9817 14.5485L36.83 15.8052C37.0284 15.403 37.3307 15.0612 37.7057 14.8152C38.0807 14.5693 38.5146 14.4281 38.9625 14.4064C39.4104 14.3847 39.856 14.4833 40.253 14.6918C40.65 14.9004 40.9839 15.2113 41.2202 15.5925C41.4565 15.9736 41.5866 16.411 41.5968 16.8593C41.6071 17.3076 41.4972 17.7505 41.2786 18.1421C41.06 18.5336 40.7406 18.8595 40.3536 19.086C39.9666 19.3125 39.526 19.4313 39.0775 19.4302C37.7242 19.4302 36.6367 18.3668 36.5642 17.0377L31.32 15.926L29.725 23.466C33.4225 23.5868 36.7334 24.7227 39.15 26.4627C39.5205 26.1089 39.9638 25.8403 40.4489 25.6758C40.934 25.5112 41.4492 25.4547 41.9585 25.51C42.4677 25.5654 42.9587 25.7314 43.3971 25.9963C43.8355 26.2613 44.2107 26.6188 44.4965 27.0439C44.7823 27.469 44.9718 27.9515 45.0517 28.4575C45.1315 28.9634 45.0999 29.4808 44.9589 29.9732C44.818 30.4657 44.5711 30.9214 44.2356 31.3086C43.9002 31.6957 43.4841 32.0048 43.0167 32.2143Z" fill="white"/>
</svg>
